<?xml version="1.0" encoding="utf-8"?>
<!-- Generator: Adobe Illustrator 26.3.1, SVG Export Plug-In . SVG Version: 6.00 Build 0)  -->
<svg version="1.1" id="圖層_1" xmlns="http://www.w3.org/2000/svg" xmlns:xlink="http://www.w3.org/1999/xlink" x="0px" y="0px"
	 viewBox="0 0 362.8 373.4" style="enable-background:new 0 0 362.8 373.4;" xml:space="preserve">
<style type="text/css">
	.st0{fill:#FF5C00;}
	.st1{fill:#FFCC00;}
	.st2{fill:#FFE3B6;}
	.st3{fill:#FF7325;}
	.st4{fill:#FFB329;}
	.st5{fill:#FF9B1A;}
	.st6{fill:#FFDC96;}
	.st7{fill:#FFECBD;}
</style>
<path class="st0" d="M181.4,373.4c100.1,0,181.3-76.4,181.3-170.7s9.5-96.3-181.3-96.3s-181.3,2-181.3,96.3S81.3,373.4,181.4,373.4z
	"/>
<path class="st1" d="M0.1,170.7C0,265,81.2,341.4,181.4,341.4s181.4-76.4,181.4-170.6c0,0,0-0.1,0-0.1C362.8,76.4,281.6,0,181.4,0
	S0.1,76.4,0.1,170.7C0.1,170.7,0.1,170.7,0.1,170.7z"/>
<path class="st2" d="M335.5,80.7c6.2,9.3,11.4,19.3,15.6,29.7L127.7,333.8c-11.2-3.3-22-7.5-32.4-12.8L335.5,80.7z M240.9,9.4
	c28.8,9.4,54.3,25.5,74.5,46.2L67.5,303.5c-23.3-17.7-41.8-40.8-53.5-67.2L240.9,9.4z"/>
<path class="st3" d="M21.4,165.4c0,79.5,71.6,144,160,144s160-64.5,160-144s-71.6-144-160-144S21.4,85.8,21.4,165.4z"/>
<path class="st4" d="M32.1,165.4c0,73.6,66.8,133.3,149.3,133.4s149.4-59.7,149.4-133.3c0,0,0,0,0-0.1C330.8,91.7,263.9,32,181.4,32
	C99,32,32.1,91.7,32.1,165.4C32.1,165.3,32.1,165.4,32.1,165.4z"/>
<path class="st5" d="M329.7,181.4c-8.9,66.1-71.9,117.3-148.3,117.3S42,247.5,33.1,181.4H329.7z"/>
<path class="st1" d="M181.4,32c54,0,101.4,25.6,127.6,64H53.8C80.1,57.7,127.4,32,181.4,32L181.4,32z"/>
<path class="st0" d="M219.2,180.4l47.4-7l0.1,20.5c-3.2,12.5-8.2,23-15.1,31.4c-6.8,8.4-15.6,14.9-25.5,19
	c-10.2,4.3-23.1,6.4-38.8,6.4c-19.1,0-34.6-2.6-46.7-7.8c-12.1-5.2-22.5-14.4-31.3-27.5c-8.8-13.1-13.2-29.9-13.2-50.4
	c0-27.3,7.7-48.3,23.2-62.9c15.4-14.7,37.3-22,65.5-22c22.1,0,39.5,4.2,52.1,12.6c5,3.3,14.3,9.2,27.8,17.6
	c-0.2,8.2,0,15.3,0.4,21.1l-47.9,10c-1.7-5-3.4-8.7-5.3-11c-2.9-3.8-6.8-6.9-11.1-9c-4.6-2.2-9.6-3.2-14.7-3.2
	c-12.3,0-21.7,4.7-28.2,14c-4.9,6.9-7.4,17.7-7.4,32.5c0,18.3,3,30.8,8.9,37.6c5.9,6.8,14.2,10.2,24.9,10.2
	c10.4,0,18.2-2.7,23.5-8.2C213,198.8,216.8,190.8,219.2,180.4L219.2,180.4z"/>
<path class="st6" d="M219.2,159.1l47.5,13.5c-3.2,12.5-8.2,23-15.1,31.4c-6.8,8.4-15.6,14.9-25.5,19c-10.2,4.3-23.1,6.4-38.8,6.4
	c-19.1,0-34.6-2.6-46.7-7.8c-12.1-5.2-22.5-14.4-31.3-27.5c-8.8-13.1-13.2-29.9-13.2-50.4c0-27.3,7.7-48.3,23.2-62.9
	c15.4-14.7,37.3-22,65.5-22c22.1,0,39.5,4.2,52.1,12.6c12.6,8.4,22,21.3,28.2,38.7l-47.9,10c-1.7-5-3.4-8.7-5.3-11
	c-2.9-3.8-6.8-6.9-11.1-9c-4.6-2.2-9.6-3.2-14.7-3.2c-12.3,0-21.7,4.7-28.2,14c-4.9,6.9-7.4,17.7-7.4,32.5c0,18.3,3,30.8,8.9,37.6
	c5.9,6.8,14.2,10.2,24.9,10.2c10.4,0,18.2-2.7,23.5-8.2C213,177.4,216.8,169.5,219.2,159.1L219.2,159.1z"/>
<path class="st7" d="M236.9,71.3c9.4,6.3,17.1,15,22.9,26.3l-17.1,17.1l-25.4,5.3c-1.7-5-3.4-8.7-5.3-11c-2.9-3.8-6.8-6.9-11.1-9
	c-4.6-2.2-9.6-3.2-14.7-3.2c-12.3,0-21.7,4.7-28.2,14c-4.9,6.9-7.4,17.7-7.4,32.5c0,18.3,3,30.8,8.9,37.6c2.8,3.2,6,5.6,9.8,7.3
	L137.3,220c-10.7-5.4-20.1-14.1-28.1-26c-5-7.4-8.5-16-10.7-25.8L206.5,60.3C218.6,62.2,228.7,65.9,236.9,71.3L236.9,71.3z"/>
</svg>
