<?xml version="1.0" encoding="utf-8"?>
<!-- Generator: Adobe Illustrator 26.3.1, SVG Export Plug-In . SVG Version: 6.00 Build 0)  -->
<svg version="1.1" id="圖層_1" xmlns="http://www.w3.org/2000/svg" xmlns:xlink="http://www.w3.org/1999/xlink" x="0px" y="0px"
	 viewBox="0 0 422.8 356.3" style="enable-background:new 0 0 422.8 356.3;" xml:space="preserve">
<style type="text/css">
	.st0{fill:#CC9E44;}
	.st1{fill:#B52331;}
	.st2{fill:#F2C14F;}
	.st3{fill:#CF262F;}
	.st4{fill:#DC2933;}
</style>
<path class="st0" d="M400.3,215.6h-78.5c-12.4,0-22.5-10.1-22.5-22.5V161c0-12.4,10.1-22.5,22.5-22.5h78.5
	c12.4,0,22.5,10.1,22.5,22.5v32.2C422.8,205.6,412.7,215.6,400.3,215.6L400.3,215.6z"/>
<path class="st1" d="M365.9,322H33.8C15.1,322,0,306.9,0,288.2V52.7C0,34,15.1,18.9,33.8,18.9h332.1c18.6,0,33.8,15.1,33.8,33.8
	v235.5C399.7,306.9,384.5,322,365.9,322z"/>
<path class="st0" d="M317.3,143.8l-190.8,59.6c-4.5,1.4-9.3-1.1-10.7-5.6l-39.1-125c-1.4-4.5,1.1-9.3,5.6-10.7L273.2,2.5
	c4.5-1.4,9.3,1.1,10.7,5.6l39.1,125C324.3,137.6,321.8,142.4,317.3,143.8z"/>
<path class="st2" d="M360.9,143.8L170,203.4c-4.5,1.4-9.3-1.1-10.7-5.6l-39.1-125c-1.4-4.5,1.1-9.3,5.6-10.7L316.7,2.5
	c4.5-1.4,9.3,1.1,10.7,5.6l39.1,125C367.9,137.6,365.4,142.4,360.9,143.8L360.9,143.8z"/>
<path class="st3" d="M365.9,356.3H33.8C15.1,356.3,0,341.2,0,322.5V53.2c0.1-7,1.7-12.9,4.8-17.8c2.5,10.4,11.8,17.8,22.6,17.8
	h338.6c18.6,0,33.8,15.1,33.8,33.8v235.5C399.7,341.2,384.5,356.3,365.9,356.3z"/>
<path class="st4" d="M33.8,342.2c-10.9,0-19.7-8.8-19.7-19.7V64.9c4.1,1.6,8.6,2.4,13.3,2.4h338.6c10.9,0,19.7,8.8,19.7,19.7v235.5
	c0,10.9-8.8,19.7-19.7,19.7L33.8,342.2L33.8,342.2z"/>
<path class="st2" d="M400.3,229.4h-78.5c-12.4,0-22.5-10.1-22.5-22.5v-32.2c0-12.4,10.1-22.5,22.5-22.5h89c0,0,7.2-1.6,3-9.2
	c8,5.8,9,15.6,9,15.6v48.3C422.8,219.3,412.7,229.4,400.3,229.4L400.3,229.4z"/>
</svg>
